{"title":"Australia's Next Top Model - S10E01","uid":15868249,"size":575685005,"categoryP":"video","categoryS":"tv_shows","magnet":"?xt=urn:btih:18877a86aca1f9d41395470e132239b8ef16ec4e&amp;dn=Australia%27s+Next+Top+Model+-+S10E01&amp;tr=udp%3A%2F%2Ftracker.leechers-paradise.org%3A6969&amp;tr=udp%3A%2F%2Fzer0day.ch%3A1337&amp;tr=udp%3A%2F%2Fopen.demonii.com%3A1337&amp;tr=udp%3A%2F%2Ftracker.coppersurfer.tk%3A6969&amp;tr=udp%3A%2F%2Fexodus.desync.com%3A6969","seeders":32,"leechers":3,"uploader":"Bullrout","files":1,"time":1474398745,"description":"Australia's Next Top Model - S10E01\r\n\r\nIt's the tenth series of Australia's Next Top Model and the competition is the most fierce it's ever been. This year, Jennifer Hawkins is joined by new judge Megan Gale and series veteran Alex Perry on the judging panel, and Jordan and Zac Stenmark combine forces with Cheyenne Tozzi as model mentors. The top thirteen are thrown in the deep end on day one with an Alex Perry runway challenge in front of 400 people. They then have to impress in the photo shoot, which is a face-off with the winner of series 7, Montana Cox. The episode culminates in an emotion-charged elimination, as one girl's story brings Megan to tears.\r\n\r\nComplete name                            : Australia's Next Top Model - S10E01.mp4\r\nFormat                                   : MPEG-4\r\nFormat profile                           : Base Media / Version 2\r\nCodec ID                                 : mp42 (mp42/isom/avc1)\r\nFile size                                : 549 MiB\r\nDuration                                 : 1 h 9 min\r\nOverall bit rate mode                    : Variable\r\nOverall bit rate                         : 1 108 kb/s\r\n\r\nVideo\r\nID                                       : 2\r\nFormat                                   : AVC\r\nFormat/Info                              : Advanced Video Codec\r\nFormat profile                           :   \r\nFormat settings, CABAC                   : Yes\r\nFormat settings, ReFrames                : 3 frames\r\nCodec ID                                 : avc1\r\nCodec ID/Info                            : Advanced Video Coding\r\nDuration                                 : 1 h 9 min\r\nBit rate mode                            : Variable\r\nBit rate                                 : 976 kb/s\r\nMaximum bit rate                         : 1 000 kb/s\r\nWidth                                    : 720 pixels\r\nHeight                                   : 404 pixels\r\nDisplay aspect ratio                     : 16:9\r\nOriginal display aspect ratio            : 16:9\r\nFrame rate mode                          : Constant\r\nFrame rate                               : 25.000 FPS\r\nStandard                                 : PAL\r\nColor space                              : YUV\r\nChroma subsampling                       : 4:2:0\r\nBit depth                                : 8 bits\r\nScan type                                : Progressive\r\nBits/(Pixel*Frame)                       : 0.134\r\nStream size                              : 484 MiB (88%)\r\nWriting library                          : x264 core 112\r\nColor range                              : Limited\r\nColor primaries                          : BT.601 PAL\r\nTransfer characteristics                 : BT.470 System B, BT.470 System G\r\nMatrix coefficients                      : BT.601\r\n\r\nAudio\r\nID                                       : 1\r\nFormat                                   : AAC\r\nFormat/Info                              : Advanced Audio Codec\r\nFormat profile                           : LC\r\nCodec ID                                 : 40\r\nDuration                                 : 1 h 9 min\r\nBit rate mode                            : Variable\r\nBit rate                                 : 128 kb/s\r\nMaximum bit rate                         : 576 kb/s\r\nChannel(s)                               : 2 channels\r\nChannel positions                        : Front: L R\r\nSampling rate                            : 48.0 kHz\r\nFrame rate                               : 46.875 FPS (1024 spf)\r\nCompression mode                         : Lossy\r\nStream size                              : 63.5 MiB (12%)","torrent":{"xt":"urn:btih:18877a86aca1f9d41395470e132239b8ef16ec4e","amp;dn":"Australia%27s+Next+Top+Model+-+S10E01","amp;tr":["udp%3A%2F%2Ftracker.leechers-paradise.org%3A6969","udp%3A%2F%2Fzer0day.ch%3A1337","udp%3A%2F%2Fopen.demonii.com%3A1337","udp%3A%2F%2Ftracker.coppersurfer.tk%3A6969","udp%3A%2F%2Fexodus.desync.com%3A6969"],"infoHash":"18877a86aca1f9d41395470e132239b8ef16ec4e","infoHashBuffer":{"type":"Buffer","data":[24,135,122,134,172,161,249,212,19,149,71,14,19,34,57,184,239,22,236,78]},"announce":[],"urlList":[]}}